<svg width="22" height="22" viewBox="0 0 22 22" fill="none" xmlns="http://www.w3.org/2000/svg">
<g id="Search" clip-path="url(#clip0_389_743)">
<path id="Vector" d="M10.0834 1.83301C14.6374 1.83301 18.3334 5.52901 18.3334 10.083C18.3334 14.637 14.6374 18.333 10.0834 18.333C5.52937 18.333 1.83337 14.637 1.83337 10.083C1.83337 5.52901 5.52937 1.83301 10.0834 1.83301ZM10.0834 16.4997C13.6281 16.4997 16.5 13.6278 16.5 10.083C16.5 6.53734 13.6281 3.66634 10.0834 3.66634C6.53771 3.66634 3.66671 6.53734 3.66671 10.083C3.66671 13.6278 6.53771 16.4997 10.0834 16.4997ZM17.8613 16.5648L20.4545 19.1571L19.1575 20.4542L16.5651 17.8609L17.8613 16.5648Z" fill="#2D2D2D"/>
</g>
<defs>
<clipPath id="clip0_389_743">
<rect width="22" height="22" fill="white"/>
</clipPath>
</defs>
</svg>
