<svg width="22" height="22" viewBox="0 0 22 22" fill="none" xmlns="http://www.w3.org/2000/svg">
<g id="User" clip-path="url(#clip0_389_272)">
<path id="Vector" d="M18.3334 20.167H16.5V18.3337C16.5 17.6043 16.2103 16.9048 15.6946 16.3891C15.1788 15.8734 14.4794 15.5837 13.75 15.5837H8.25002C7.52068 15.5837 6.8212 15.8734 6.30548 16.3891C5.78975 16.9048 5.50002 17.6043 5.50002 18.3337V20.167H3.66669V18.3337C3.66669 17.1181 4.14957 15.9523 5.00911 15.0928C5.86866 14.2332 7.03444 13.7503 8.25002 13.7503H13.75C14.9656 13.7503 16.1314 14.2332 16.9909 15.0928C17.8505 15.9523 18.3334 17.1181 18.3334 18.3337V20.167ZM11 11.917C10.2778 11.917 9.56255 11.7747 8.89526 11.4983C8.22797 11.2219 7.62165 10.8168 7.11093 10.3061C6.60021 9.79536 6.19508 9.18904 5.91868 8.52175C5.64228 7.85446 5.50002 7.13926 5.50002 6.41699C5.50002 5.69472 5.64228 4.97952 5.91868 4.31223C6.19508 3.64494 6.60021 3.03863 7.11093 2.5279C7.62165 2.01718 8.22797 1.61206 8.89526 1.33565C9.56255 1.05925 10.2778 0.916992 11 0.916992C12.4587 0.916992 13.8577 1.49645 14.8891 2.5279C15.9206 3.55936 16.5 4.9583 16.5 6.41699C16.5 7.87568 15.9206 9.27463 14.8891 10.3061C13.8577 11.3375 12.4587 11.917 11 11.917ZM11 10.0837C11.9725 10.0837 12.9051 9.69735 13.5927 9.00972C14.2804 8.32208 14.6667 7.38945 14.6667 6.41699C14.6667 5.44453 14.2804 4.5119 13.5927 3.82427C12.9051 3.13663 11.9725 2.75033 11 2.75033C10.0276 2.75033 9.09493 3.13663 8.4073 3.82427C7.71966 4.5119 7.33335 5.44453 7.33335 6.41699C7.33335 7.38945 7.71966 8.32208 8.4073 9.00972C9.09493 9.69735 10.0276 10.0837 11 10.0837Z" fill="#2D2D2D"/>
</g>
<defs>
<clipPath id="clip0_389_272">
<rect width="22" height="22" fill="white"/>
</clipPath>
</defs>
</svg>
